# xmcd
#
# Track frame offsets: 
#        150
#        17717
#        34567
#        53945
#        71722
#        86347
#        101677
#        122597
#        138822
#        155590
#        168532
#        186830
#        198730
#        212430
#
# Disc length: 3057 seconds
#
# Revision: 1
# Processed by: cddbd v1.5.2PL0 Copyright (c) Steve Scherf et al.
# Submitted via: ExactAudioCopyFreeDBPlugin 1.0
#
DISCID=be0bef0e
DTITLE=Various Artist - Mobil 1 Sound 2006 - No Campo
DYEAR=2006
DGENRE=Country
TTITLE0=Bruno E Marrone - Por Te Amar Demais
TTITLE1=Zezé Di Camargo and Luciano - Fera Mansa
TTITLE2=Gian and Giovani - O Grande Amor Da Minha Vida (Convite De Casam
TTITLE2=ento)
TTITLE3=Bruno E Marrone - Vai Dar Namoro
TTITLE4=Zezé Di Camargo and Luciano - No Dia Em Que Eu Saí De Casa
TTITLE5=Leonardo - Se Ainda Existe Amor
TTITLE6=Chrystian E Ralf - Yolanda (Yolanda)
TTITLE7=Bruno E Marrone - Quer Casar Comigo
TTITLE8=Zezé Di Camargo and Luciano - Foi
TTITLE9=Sérgio Reis - Saudade De Minha Terra
TTITLE10=Gian and Giovani - Festa De Rodeio
TTITLE11=Edson and Hudson - Festa Louca (Mi Vida Loca) (My Crazy Life) (
TTITLE11=Album Version)
TTITLE12=Bruno E Marrone - Credo Em Cruz Ave Maria
TTITLE13=Zé Do Rancho and Zé Do Pinho - Poeira
EXTD=Posto Avenida\nEsso\nGaspar - SC\nwww.hlera.com.br
EXTT0=
EXTT1=
EXTT2=
EXTT3=
EXTT4=
EXTT5=
EXTT6=
EXTT7=
EXTT8=
EXTT9=
EXTT10=
EXTT11=
EXTT12=
EXTT13=
PLAYORDER=
